<mxfile host="app.diagrams.net" agent="Mozilla/5.0 (Macintosh; Intel Mac OS X 10_15_7) AppleWebKit/537.36 (KHTML, like Gecko) Chrome/139.0.0.0 Safari/537.36" version="28.1.1">
  <diagram name="Page-1" id="w0Y89jhad0bRNB12focx">
    <mxGraphModel dx="1018" dy="655" grid="1" gridSize="10" guides="1" tooltips="1" connect="1" arrows="1" fold="1" page="1" pageScale="1" pageWidth="827" pageHeight="1169" math="0" shadow="0">
      <root>
        <mxCell id="0" />
        <mxCell id="1" parent="0" />
        <mxCell id="TvZPPimcPzZqTXMCfdLI-1" value="Register User" style="ellipse;whiteSpace=wrap;html=1;fillColor=#fff2cc;strokeColor=#d6b656;" vertex="1" parent="1">
          <mxGeometry x="340" y="30" width="120" height="80" as="geometry" />
        </mxCell>
        <mxCell id="TvZPPimcPzZqTXMCfdLI-3" value="" style="endArrow=classic;html=1;rounded=0;" edge="1" parent="1">
          <mxGeometry width="50" height="50" relative="1" as="geometry">
            <mxPoint x="400" y="110" as="sourcePoint" />
            <mxPoint x="400" y="180" as="targetPoint" />
          </mxGeometry>
        </mxCell>
        <mxCell id="TvZPPimcPzZqTXMCfdLI-25" value="" style="edgeStyle=orthogonalEdgeStyle;rounded=0;orthogonalLoop=1;jettySize=auto;html=1;" edge="1" parent="1" source="TvZPPimcPzZqTXMCfdLI-4" target="TvZPPimcPzZqTXMCfdLI-24">
          <mxGeometry relative="1" as="geometry" />
        </mxCell>
        <mxCell id="TvZPPimcPzZqTXMCfdLI-29" value="" style="edgeStyle=orthogonalEdgeStyle;rounded=0;orthogonalLoop=1;jettySize=auto;html=1;" edge="1" parent="1" source="TvZPPimcPzZqTXMCfdLI-4" target="TvZPPimcPzZqTXMCfdLI-24">
          <mxGeometry relative="1" as="geometry" />
        </mxCell>
        <mxCell id="TvZPPimcPzZqTXMCfdLI-4" value="Login User" style="ellipse;whiteSpace=wrap;html=1;fillColor=#fff2cc;strokeColor=#d6b656;" vertex="1" parent="1">
          <mxGeometry x="340" y="180" width="120" height="80" as="geometry" />
        </mxCell>
        <mxCell id="TvZPPimcPzZqTXMCfdLI-5" value="" style="endArrow=classic;html=1;rounded=0;" edge="1" parent="1" target="TvZPPimcPzZqTXMCfdLI-24">
          <mxGeometry width="50" height="50" relative="1" as="geometry">
            <mxPoint x="400" y="310" as="sourcePoint" />
            <mxPoint x="399.5" y="350" as="targetPoint" />
          </mxGeometry>
        </mxCell>
        <mxCell id="TvZPPimcPzZqTXMCfdLI-13" value="User asks for a quote to guess" style="rhombus;whiteSpace=wrap;html=1;fillColor=#d5e8d4;strokeColor=#82b366;" vertex="1" parent="1">
          <mxGeometry x="345" y="330" width="110" height="120" as="geometry" />
        </mxCell>
        <mxCell id="TvZPPimcPzZqTXMCfdLI-14" value="" style="endArrow=classic;html=1;rounded=0;" edge="1" parent="1">
          <mxGeometry width="50" height="50" relative="1" as="geometry">
            <mxPoint x="345" y="390" as="sourcePoint" />
            <mxPoint x="300" y="480" as="targetPoint" />
          </mxGeometry>
        </mxCell>
        <mxCell id="TvZPPimcPzZqTXMCfdLI-15" value="user guesses right, his score increases" style="ellipse;whiteSpace=wrap;html=1;fillColor=#d5e8d4;strokeColor=#82b366;" vertex="1" parent="1">
          <mxGeometry x="235" y="480" width="120" height="80" as="geometry" />
        </mxCell>
        <mxCell id="TvZPPimcPzZqTXMCfdLI-16" value="user fails" style="ellipse;whiteSpace=wrap;html=1;fillColor=#f8cecc;strokeColor=#b85450;" vertex="1" parent="1">
          <mxGeometry x="445" y="480" width="120" height="80" as="geometry" />
        </mxCell>
        <mxCell id="TvZPPimcPzZqTXMCfdLI-17" value="" style="endArrow=classic;html=1;rounded=0;" edge="1" parent="1">
          <mxGeometry width="50" height="50" relative="1" as="geometry">
            <mxPoint x="455" y="390" as="sourcePoint" />
            <mxPoint x="507.39" y="479.66999999999996" as="targetPoint" />
          </mxGeometry>
        </mxCell>
        <mxCell id="TvZPPimcPzZqTXMCfdLI-19" value="Needs to wait 12 hours for the next guess :(" style="ellipse;whiteSpace=wrap;html=1;fillColor=#f8cecc;strokeColor=#b85450;" vertex="1" parent="1">
          <mxGeometry x="470" y="630" width="120" height="80" as="geometry" />
        </mxCell>
        <mxCell id="TvZPPimcPzZqTXMCfdLI-20" value="" style="endArrow=classic;html=1;rounded=0;" edge="1" parent="1">
          <mxGeometry width="50" height="50" relative="1" as="geometry">
            <mxPoint x="285.75" y="560" as="sourcePoint" />
            <mxPoint x="285.75" y="630" as="targetPoint" />
          </mxGeometry>
        </mxCell>
        <mxCell id="TvZPPimcPzZqTXMCfdLI-21" value="When an author guess reaches 10 correct guesses, user gets an email with a discount to the author books" style="ellipse;whiteSpace=wrap;html=1;fillColor=#d5e8d4;strokeColor=#82b366;" vertex="1" parent="1">
          <mxGeometry x="203.75" y="830" width="167.5" height="110" as="geometry" />
        </mxCell>
        <mxCell id="TvZPPimcPzZqTXMCfdLI-23" value="" style="edgeStyle=orthogonalEdgeStyle;rounded=0;orthogonalLoop=1;jettySize=auto;html=1;" edge="1" parent="1" source="TvZPPimcPzZqTXMCfdLI-22" target="TvZPPimcPzZqTXMCfdLI-21">
          <mxGeometry relative="1" as="geometry" />
        </mxCell>
        <mxCell id="TvZPPimcPzZqTXMCfdLI-22" value="Next quote to guess, if all quotes were used by this user, we check the user provider if they can send us new ones" style="ellipse;whiteSpace=wrap;html=1;fillColor=#d5e8d4;strokeColor=#82b366;" vertex="1" parent="1">
          <mxGeometry x="202.5" y="630" width="170" height="130" as="geometry" />
        </mxCell>
        <mxCell id="TvZPPimcPzZqTXMCfdLI-26" value="" style="edgeStyle=orthogonalEdgeStyle;rounded=0;orthogonalLoop=1;jettySize=auto;html=1;" edge="1" parent="1" source="TvZPPimcPzZqTXMCfdLI-24">
          <mxGeometry relative="1" as="geometry">
            <mxPoint x="400" y="330" as="targetPoint" />
          </mxGeometry>
        </mxCell>
        <mxCell id="TvZPPimcPzZqTXMCfdLI-24" value="Game starts" style="rounded=1;whiteSpace=wrap;html=1;fillColor=#d5e8d4;strokeColor=#82b366;" vertex="1" parent="1">
          <mxGeometry x="355" y="280" width="90" height="30" as="geometry" />
        </mxCell>
        <mxCell id="TvZPPimcPzZqTXMCfdLI-27" value="" style="endArrow=classic;html=1;rounded=0;" edge="1" parent="1" target="TvZPPimcPzZqTXMCfdLI-28">
          <mxGeometry width="50" height="50" relative="1" as="geometry">
            <mxPoint x="460" y="230" as="sourcePoint" />
            <mxPoint x="580" y="310" as="targetPoint" />
          </mxGeometry>
        </mxCell>
        <mxCell id="TvZPPimcPzZqTXMCfdLI-28" value="User can access leadership board and check the high score users in the game" style="ellipse;whiteSpace=wrap;html=1;fillColor=#d5e8d4;strokeColor=#82b366;" vertex="1" parent="1">
          <mxGeometry x="520" y="270" width="140" height="90" as="geometry" />
        </mxCell>
        <mxCell id="TvZPPimcPzZqTXMCfdLI-30" style="edgeStyle=orthogonalEdgeStyle;rounded=0;orthogonalLoop=1;jettySize=auto;html=1;entryX=0.292;entryY=0.125;entryDx=0;entryDy=0;entryPerimeter=0;" edge="1" parent="1" source="TvZPPimcPzZqTXMCfdLI-16" target="TvZPPimcPzZqTXMCfdLI-19">
          <mxGeometry relative="1" as="geometry" />
        </mxCell>
      </root>
    </mxGraphModel>
  </diagram>
</mxfile>
